<svg xmlns="http://www.w3.org/2000/svg" viewBox="0 0 760 380" font-family="'Segoe UI','Apple SD Gothic Neo',sans-serif">
  <rect width="760" height="380" fill="#ffffff"/>
  <text x="380" y="34" text-anchor="middle" font-size="20" font-weight="700" fill="#111">오늘의 AI 변화 지도 — 잠긴 프런티어 vs 열린 오픈웨이트</text>
  <text x="380" y="56" text-anchor="middle" font-size="13" fill="#666">2026-07-04 · 근-프런티어 코딩 모델을 지금 라우팅해서 쓰기</text>

  <!-- Col 1: locked -->
  <rect x="24" y="82" width="216" height="266" rx="12" fill="#fdecec" stroke="#e5a0a0" stroke-width="1.5"/>
  <text x="132" y="110" text-anchor="middle" font-size="15" font-weight="700" fill="#b3261e">🔒 잠김 (프런티어)</text>
  <rect x="42" y="126" width="180" height="86" rx="8" fill="#fff" stroke="#e5a0a0"/>
  <text x="132" y="150" text-anchor="middle" font-size="13.5" font-weight="700" fill="#333">GPT-5.6 Sol</text>
  <text x="132" y="170" text-anchor="middle" font-size="11.5" fill="#666">6/26 프리뷰</text>
  <text x="132" y="188" text-anchor="middle" font-size="11.5" fill="#666">美 정부 승인 ~20곳만</text>
  <rect x="42" y="224" width="180" height="100" rx="8" fill="#fff" stroke="#e5a0a0"/>
  <text x="132" y="248" text-anchor="middle" font-size="13.5" font-weight="700" fill="#333">Gemini 3.5 Pro</text>
  <text x="132" y="268" text-anchor="middle" font-size="11.5" fill="#666">6월 GA→7월로 재연기</text>
  <text x="132" y="286" text-anchor="middle" font-size="11.5" fill="#666">Vertex 한정 프리뷰</text>
  <text x="132" y="308" text-anchor="middle" font-size="11.5" fill="#666">2M ctx·Deep Think</text>

  <!-- Col 2: open -->
  <rect x="272" y="82" width="216" height="266" rx="12" fill="#e8f5ec" stroke="#7bbf93" stroke-width="1.5"/>
  <text x="380" y="110" text-anchor="middle" font-size="15" font-weight="700" fill="#1b7a3d">🔓 열림 (오픈웨이트)</text>
  <rect x="290" y="126" width="180" height="198" rx="8" fill="#fff" stroke="#7bbf93"/>
  <text x="380" y="152" text-anchor="middle" font-size="15" font-weight="700" fill="#111">LongCat-2.0</text>
  <text x="380" y="172" text-anchor="middle" font-size="11.5" fill="#555">Meituan · 6/30 · MIT</text>
  <line x1="306" y1="184" x2="454" y2="184" stroke="#cde8d5"/>
  <text x="380" y="204" text-anchor="middle" font-size="12" fill="#333">1.6T MoE (활성 ~33–56B/토큰)</text>
  <text x="380" y="224" text-anchor="middle" font-size="12" fill="#333">1M 컨텍스트</text>
  <text x="380" y="244" text-anchor="middle" font-size="12" fill="#333">SWE-bench Pro 59.5</text>
  <text x="380" y="264" text-anchor="middle" font-size="12" fill="#333">국산 칩 5만장으로 학습</text>
  <text x="380" y="288" text-anchor="middle" font-size="11.5" fill="#1b7a3d">HF · OpenRouter · API 공개</text>
  <text x="380" y="308" text-anchor="middle" font-size="11.5" fill="#666">웨이트 다운로드 가능</text>

  <!-- Col 3: action -->
  <rect x="520" y="82" width="216" height="266" rx="12" fill="#eaf1fb" stroke="#8aaee0" stroke-width="1.5"/>
  <text x="628" y="110" text-anchor="middle" font-size="15" font-weight="700" fill="#1a56b0">🛠 그래서 할 일</text>
  <rect x="538" y="126" width="180" height="62" rx="8" fill="#fff" stroke="#8aaee0"/>
  <text x="628" y="150" text-anchor="middle" font-size="12.5" font-weight="700" fill="#333">1. 라우팅 연결</text>
  <text x="628" y="170" text-anchor="middle" font-size="11.5" fill="#666">Codex/CC → OpenRouter</text>
  <rect x="538" y="198" width="180" height="62" rx="8" fill="#fff" stroke="#8aaee0"/>
  <text x="628" y="222" text-anchor="middle" font-size="12.5" font-weight="700" fill="#333">2. 내 태스크 A/B</text>
  <text x="628" y="242" text-anchor="middle" font-size="11.5" fill="#666">vs Sonnet 5, Δ 측정</text>
  <rect x="538" y="270" width="180" height="54" rx="8" fill="#fff" stroke="#8aaee0"/>
  <text x="628" y="292" text-anchor="middle" font-size="12.5" font-weight="700" fill="#333">3. 이득일 때만 승격</text>
  <text x="628" y="312" text-anchor="middle" font-size="11.5" fill="#666">정확도·비용·툴콜</text>

  <!-- arrows -->
  <defs>
    <marker id="ar" markerWidth="9" markerHeight="9" refX="6" refY="3" orient="auto">
      <path d="M0,0 L6,3 L0,6 Z" fill="#888"/>
    </marker>
  </defs>
  <line x1="240" y1="215" x2="270" y2="215" stroke="#888" stroke-width="2" marker-end="url(#ar)"/>
  <line x1="488" y1="215" x2="518" y2="215" stroke="#888" stroke-width="2" marker-end="url(#ar)"/>
</svg>
