<svg xmlns="http://www.w3.org/2000/svg" viewBox="0 0 720 440" font-family="'Helvetica Neue',Arial,sans-serif">
  <rect width="720" height="440" fill="#0f1524"/>
  <text x="360" y="34" text-anchor="middle" fill="#e8edf7" font-size="20" font-weight="700">오늘의 AI 변화 지도 — 2026-07-15</text>
  <text x="360" y="58" text-anchor="middle" fill="#8ea0c0" font-size="13">축: 코드에서 모델·메모리를 안전하게 다루기</text>

  <!-- center -->
  <ellipse cx="360" cy="240" rx="118" ry="46" fill="#1c2740" stroke="#4f79d6" stroke-width="2"/>
  <text x="360" y="234" text-anchor="middle" fill="#cfe0ff" font-size="14" font-weight="700">운영 리스크 ↔ 메모리 신뢰성</text>
  <text x="360" y="254" text-anchor="middle" fill="#8ea0c0" font-size="12">"지금 코드에서 뭘 바꾸나"</text>

  <!-- nodes -->
  <!-- DeepSeek -->
  <line x1="360" y1="200" x2="170" y2="110" stroke="#39496b" stroke-width="1.5"/>
  <rect x="40" y="80" width="240" height="60" rx="10" fill="#22314f" stroke="#e0574f" stroke-width="1.6"/>
  <text x="160" y="104" text-anchor="middle" fill="#ffd7d3" font-size="13" font-weight="700">DeepSeek 레거시 모델명 종료</text>
  <text x="160" y="124" text-anchor="middle" fill="#b9c6de" font-size="11.5">deepseek-chat/reasoner → 7/24 하드컷 (D-9)</text>

  <!-- Gemini -->
  <line x1="360" y1="205" x2="565" y2="110" stroke="#39496b" stroke-width="1.5"/>
  <rect x="450" y="80" width="230" height="60" rx="10" fill="#22314f" stroke="#5b8def" stroke-width="1.6"/>
  <text x="565" y="104" text-anchor="middle" fill="#d3e2ff" font-size="13" font-weight="700">Gemini 3.5 Pro — D-2</text>
  <text x="565" y="124" text-anchor="middle" fill="#b9c6de" font-size="11.5">7/17 목표·스펙 미확정·모델카드 없음</text>

  <!-- Compliance Trap -->
  <line x1="300" y1="278" x2="160" y2="365" stroke="#39496b" stroke-width="1.5"/>
  <rect x="40" y="340" width="240" height="62" rx="10" fill="#22314f" stroke="#c98be0" stroke-width="1.6"/>
  <text x="160" y="364" text-anchor="middle" fill="#efd8ff" font-size="13" font-weight="700">논문: Compliance Trap</text>
  <text x="160" y="384" text-anchor="middle" fill="#b9c6de" font-size="11.5">충돌 메모리를 "어떻게 소비"하나 진단</text>

  <!-- ToolAtlas -->
  <line x1="420" y1="278" x2="560" y2="365" stroke="#39496b" stroke-width="1.5"/>
  <rect x="440" y="340" width="240" height="62" rx="10" fill="#22314f" stroke="#54c69a" stroke-width="1.6"/>
  <text x="560" y="364" text-anchor="middle" fill="#d2ffe9" font-size="13" font-weight="700">논문: ToolAtlas</text>
  <text x="560" y="384" text-anchor="middle" fill="#b9c6de" font-size="11.5">공급자(툴) 측 메모리 · pass@1 +21.6%</text>

  <!-- tips node -->
  <line x1="360" y1="286" x2="360" y2="330" stroke="#39496b" stroke-width="1.5"/>
  <rect x="250" y="330" width="220" height="40" rx="10" fill="#1a2338" stroke="#d6b24f" stroke-width="1.4"/>
  <text x="360" y="355" text-anchor="middle" fill="#ffe9a8" font-size="12.5" font-weight="700">실전 팁: Bedrock · DeepSeek in CC · E-P-R</text>
</svg>
