<svg xmlns="http://www.w3.org/2000/svg" viewBox="0 0 800 470" font-family="-apple-system, 'Segoe UI', 'Noto Sans KR', sans-serif">
  <rect width="800" height="470" fill="#ffffff"/>
  <text x="400" y="34" text-anchor="middle" font-size="20" font-weight="700" fill="#1a1a2e">오늘의 AI 변화 지도 — 2026-09-30</text>

  <!-- center hub -->
  <rect x="285" y="210" width="230" height="52" rx="26" fill="#1a1a2e"/>
  <text x="400" y="237" text-anchor="middle" font-size="14" font-weight="700" fill="#ffffff">미드티어 $2/$10 전쟁:</text>
  <text x="400" y="253" text-anchor="middle" font-size="14" font-weight="700" fill="#ffffff">이제 태스크 단가로 겨룬다</text>

  <!-- connectors -->
  <line x1="230" y1="130" x2="330" y2="212" stroke="#c5c9d6" stroke-width="2"/>
  <line x1="570" y1="130" x2="470" y2="212" stroke="#c5c9d6" stroke-width="2"/>
  <line x1="230" y1="360" x2="330" y2="260" stroke="#c5c9d6" stroke-width="2"/>
  <line x1="570" y1="360" x2="470" y2="260" stroke="#c5c9d6" stroke-width="2"/>

  <!-- quadrant: models -->
  <rect x="40" y="60" width="330" height="118" rx="12" fill="#eef4ff" stroke="#4a7dff" stroke-width="1.5"/>
  <text x="56" y="86" font-size="15" font-weight="700" fill="#2453c9">🤖 모델</text>
  <text x="56" y="112" font-size="13" fill="#1a1a2e">GPT-6.1 Sol — DevDay 2026 (9/29)</text>
  <text x="56" y="130" font-size="12" fill="#555f77">$2/$10 · 1.05M 컨텍스트 · Astra 근접 성능, 1/5 가격</text>
  <text x="56" y="152" font-size="13" fill="#1a1a2e">Sonnet 5.5 출시 하루 만의 맞불</text>
  <text x="56" y="170" font-size="12" fill="#555f77">Codex용 Ultrafast(최대 8배 속도) 수일 내 예고</text>

  <!-- quadrant: papers -->
  <rect x="430" y="60" width="330" height="118" rx="12" fill="#f3efff" stroke="#8a63e8" stroke-width="1.5"/>
  <text x="446" y="86" font-size="15" font-weight="700" fill="#6b3fd4">📚 논문</text>
  <text x="446" y="112" font-size="13" fill="#1a1a2e">WideSWE (2609.33382)</text>
  <text x="446" y="130" font-size="12" fill="#555f77">저장소 여러 개를 함께 고치는 벤치 — 최고 42.5%</text>
  <text x="446" y="152" font-size="13" fill="#1a1a2e">TokenCast (2609.35760)</text>
  <text x="446" y="170" font-size="12" fill="#555f77">에이전트 실행 중 토큰 소모를 예측·갱신</text>

  <!-- quadrant: open source -->
  <rect x="40" y="300" width="330" height="118" rx="12" fill="#eafaf1" stroke="#2fb673" stroke-width="1.5"/>
  <text x="56" y="326" font-size="15" font-weight="700" fill="#1d8a55">🛠 오픈소스</text>
  <text x="56" y="352" font-size="13" fill="#1a1a2e">WideSWE 하네스 — 크로스 레포 평가 환경</text>
  <text x="56" y="370" font-size="12" fill="#555f77">120개 실전 태스크 + 히든 테스트, HF 데이터셋</text>
  <text x="56" y="392" font-size="13" fill="#1a1a2e">hermes-agent — 셀프호스팅 에이전트 프레임워크</text>
  <text x="56" y="410" font-size="12" fill="#555f77">v0.21.5 · 단, Carbonato 봇넷 악용 사례 주의</text>

  <!-- quadrant: tools -->
  <rect x="430" y="300" width="330" height="118" rx="12" fill="#fff4e8" stroke="#e8963f" stroke-width="1.5"/>
  <text x="446" y="326" font-size="15" font-weight="700" fill="#c26a10">🧑‍💻 도구</text>
  <text x="446" y="352" font-size="13" fill="#1a1a2e">Codex: 기본 모델이 gpt-6.1-sol로 교체</text>
  <text x="446" y="370" font-size="12" fill="#555f77">Bedrock 카탈로그 + multi-agent V2 동시 활성화</text>
  <text x="446" y="392" font-size="13" fill="#1a1a2e">Claude Code 2.1.285</text>
  <text x="446" y="410" font-size="12" fill="#555f77">plugin configure — MCP 설정을 설치 시점에 주입</text>

  <text x="400" y="452" text-anchor="middle" font-size="11" fill="#8a90a3">자체 제작 · 수치는 본문 출처 참고 (벤더 주장 포함)</text>
</svg>
